<svg xmlns="http://www.w3.org/2000/svg"
  xmlns:xlink="http://www.w3.org/1999/xlink" viewBox="0 0 281 61">
  <defs>
    <path id="a" d="M0 .158h28.053v35.448H0z"/>
    <path id="c" d="M.161.071h31.638v34.398H.161z"/>
    <path id="e" d="M.124.047h7.534v8.894H.124z"/>
  </defs>
  <g fill="none" fillRule="evenodd">
    <g transform="translate(0 .585)">
      <mask id="b" fill="#fff">
        <use xlink:href="#a"/>
      </mask>
      <path fill="#01ADED" d="M24.476 28.061v-1.103c0-8.136-.002-16.272.002-24.408.001-1.424.368-1.851 1.583-1.91 1.52-.075 1.987.367 1.987 1.896.001 10.333 0 20.666.004 30.999 0 .806.064 1.646-.92 1.962-.985.316-1.692-.078-2.322-.874-6.737-8.506-13.292-17.149-19.904-25.749-.391-.508-.791-1.01-1.353-1.726-.03.602-.061.956-.062 1.31-.003 8.272 0 16.546-.003 24.819 0 1.46-.482 1.915-1.934 1.855C.436 35.087.014 34.67.008 33.53c-.013-2.37-.004-4.738-.004-7.106 0-8.102.003-16.204-.003-24.305C0 1.343-.052.551.915.278c.928-.262 1.637-.131 2.317.752 6.761 8.79 13.577 17.539 20.38 26.298.206.266.424.524.637.785l.227-.052" mask="url(#b)"/>
    </g>
    <path fill="#02ADED" d="M226.354 28.025v-1.36c0-7.918-.002-15.836.001-23.754 0-1.467.43-1.879 1.902-1.857 1.258.018 1.642.396 1.642 1.65.002 10.223-.003 20.446.01 30.67.001.723-.073 1.377-.901 1.599-.818.22-1.536.098-2.12-.633-2.999-3.763-6.05-7.488-9.046-11.253-3.968-4.984-7.903-9.992-11.854-14.99-.162-.205-.342-.397-.684-.792v25.518c0 1.396-.383 1.795-1.707 1.795-1.325 0-1.78-.434-1.781-1.775-.006-10.156-.001-20.312-.007-30.469 0-.746.086-1.446.971-1.674.87-.225 1.581-.176 2.248.666 6.836 8.633 13.725 17.229 20.6 25.833.167.207.352.4.726.826"/>
    <path fill="#03ADED" d="M71.534 17.818V2.633c0-1.704.287-2.016 1.953-1.997 4.121.046 8.25-.205 12.363.113 5.014.389 8.962 4.108 9.804 9.042.794 4.648-1.81 9.41-6.357 11.416-.917.405-.876.7-.443 1.445 1.938 3.341 3.823 6.714 5.719 10.08.846 1.502.4 2.193-1.302 2.287-1.233.067-1.936-.391-2.518-1.473-2.136-3.974-4.365-7.899-6.558-11.842-1.15-2.065-.892-2.575 1.45-2.873 4.451-.566 7.463-5.089 6.23-9.354-.822-2.84-3.558-5.106-6.588-5.227-3.156-.125-6.32-.052-9.48-.105-.714-.012-.648.396-.648.854-.006 3.249-.025 6.498-.028 9.746-.005 6.088 0 12.176-.002 18.264 0 1.653-.917 2.36-2.538 1.948-.916-.233-1.066-.924-1.064-1.748.014-4.583.007-9.166.007-13.75v-1.64zM168.01 6.592c-1.634 3.648-3.228 7.201-4.818 10.756-2.428 5.427-4.854 10.856-7.28 16.285-.552 1.238-2.122 1.803-3.342 1.19-.807-.407-.608-1.04-.337-1.647.892-1.994 1.801-3.981 2.707-5.97 3.844-8.439 7.693-16.876 11.53-25.318.306-.672.625-1.27 1.51-1.302.945-.033 1.294.585 1.613 1.296 2.81 6.25 5.634 12.496 8.45 18.745 1.822 4.042 3.642 8.086 5.453 12.133.322.72.879 1.52-.213 2.07-.998.505-2.58.101-3.04-.713-.181-.322-.32-.666-.47-1.004-3.803-8.603-7.605-17.206-11.41-25.808-.09-.208-.2-.407-.352-.713"/>
    <g transform="translate(249.068 .585)">
      <mask id="d" fill="#fff">
        <use xlink:href="#c"/>
      </mask>
      <path fill="#03ADED" d="M16.072 6.037c-1.992 4.466-3.917 8.773-5.835 13.082-2.082 4.678-4.155 9.36-6.238 14.037-.502 1.127-2.177 1.665-3.293 1.064-.717-.386-.608-.971-.343-1.563.946-2.106 1.902-4.208 2.854-6.31 3.715-8.202 7.43-16.404 11.146-24.604.166-.365.313-.75.546-1.073.694-.965 2.035-.731 2.579.465 1.592 3.504 3.164 7.018 4.74 10.53 3.055 6.808 6.108 13.619 9.162 20.429.595 1.327.549 1.845-.193 2.162-1.156.493-2.658.067-3.103-.933-1.593-3.576-3.161-7.163-4.74-10.747L16.073 6.037" mask="url(#d)"/>
    </g>
    <path fill="#303393" d="M125.784 30.182l10.338-22.877c.654-1.448 1.297-2.9 1.967-4.342.451-.973 2.471-1.416 3.306-.725.604.5.374 1.085.111 1.66-2.086 4.55-4.17 9.1-6.257 13.65-2.665 5.807-5.334 11.614-8.002 17.421-.197.428-.35.881-.802 1.148-.86.508-1.68.178-2.197-.955-1.47-3.23-2.92-6.471-4.377-9.707l-9.62-21.364c-.32-.71-.817-1.479.21-2.004 1.04-.531 2.66-.066 3.065.83 1.364 3.019 2.712 6.045 4.063 9.07 2.59 5.803 5.178 11.607 7.77 17.41.094.211.22.408.425.785"/>
    <path fill="#00ACED" d="M48.537 17.689V2.46C48.539.996 48.82.581 49.8.585c1.011.004 1.29.386 1.29 1.843.003 10.289.003 20.578 0 30.867 0 1.338-.32 1.771-1.268 1.776-.964.006-1.281-.414-1.282-1.743-.004-5.213-.002-10.426-.002-15.64"/>
    <path fill="#09AFEE" d="M23.326 57.548c.92-1.822 1.728-3.476 2.595-5.101.214-.402.22-1.098.932-1.045.645.048.69.686.91 1.11.836 1.61 1.639 3.234 2.548 5.039.916-2.045 1.749-3.9 2.58-5.757.096-.216.172-.44.281-.649.195-.372.31-.924.928-.69.64.241.332.719.16 1.1-1.085 2.39-2.184 4.776-3.282 7.161-.14.303-.255.638-.708.623-.405-.013-.49-.337-.62-.595-.82-1.624-1.623-3.256-2.437-4.882-.103-.205-.244-.393-.432-.692-.94 1.853-1.837 3.615-2.73 5.38-.18.353-.266.811-.811.777-.477-.029-.555-.453-.703-.778-1.05-2.296-2.093-4.595-3.132-6.895-.176-.389-.488-.865.077-1.134.642-.306.808.261 1 .69l2.844 6.338"/>
    <path fill="#3B3E98" d="M127.577 52.447v5.968c0 .403.08.902-.535.924-.612.022-.592-.454-.592-.876.003-2.377-.001-4.755.004-7.133.001-.362-.08-.793.448-.91.46-.103.711.194.954.506 1.422 1.824 2.849 3.645 4.277 5.464.208.264.435.515.808.954v-3.058-3.057c-.001-.385-.016-.793.543-.816.636-.027.628.422.628.843.001 2.344.004 4.687-.003 7.031 0 .363.067.778-.424.941-.545.182-.85-.125-1.145-.505a1158.21 1158.21 0 00-4.14-5.306c-.207-.264-.434-.513-.823-.97"/>
    <g transform="translate(160.936 50.399)">
      <mask id="f" fill="#fff">
        <use xlink:href="#e"/>
      </mask>
      <path fill="#363996" d="M4.036 8.937c-1.118-.004-1.983-.177-2.78-.643A2.374 2.374 0 01.23 7.162c-.132-.304-.188-.603.115-.785.305-.183.56-.107.8.239.97 1.396 3.515 1.764 4.862.74.418-.317.662-.718.568-1.27-.099-.578-.549-.825-1.02-.907C4.524 5 3.474 4.926 2.438 4.763.97 4.53.317 3.943.246 2.859.165 1.636.774.807 2.104.346c1.22-.423 2.444-.386 3.65.043.649.231 1.177.645 1.478 1.32.116.26.19.5-.097.69-.287.193-.51.128-.75-.13C5.31 1.11 3.592.759 2.232 1.422c-.536.26-1.022.624-.933 1.339.081.657.562.926 1.139 1.007.975.137 1.953.245 2.93.371 1.458.189 2.185.81 2.28 1.939.097 1.138-.606 2.118-1.856 2.557-.637.224-1.296.328-1.756.302" mask="url(#f)"/>
    </g>
    <path fill="#363996" d="M90.752 59.335c-1.075.006-1.99-.177-2.823-.677-.488-.293-.87-.698-1.033-1.268-.076-.266-.076-.554.243-.664.252-.087.487-.07.696.178 1.193 1.414 2.802 1.82 4.481 1.138.642-.261 1.172-.678 1.106-1.458-.065-.773-.69-.986-1.326-1.078-1.026-.147-2.062-.225-3.085-.392-1.308-.213-1.974-.847-2.077-1.877-.105-1.037.498-1.968 1.643-2.433 1.386-.564 2.793-.52 4.177.012.323.124.655.339.876.605.306.369.909.816.358 1.327-.52.48-.737-.192-1.024-.51-.907-1.008-3.681-1.017-4.604-.024-.54.58-.423 1.358.283 1.74.466.251.988.305 1.505.357.677.067 1.356.122 2.032.207 1.471.184 2.207.772 2.322 1.831.136 1.268-.573 2.273-1.951 2.71-.62.197-1.262.306-1.8.276"/>
    <path fill="#0EB1EE" d="M70.073 53.245c0 .477.002.955-.001 1.432-.003.299.044.56.442.544 1.123-.041 2.253.123 3.37-.114.922-.195 1.55-.682 1.59-1.642.04-.935-.517-1.525-1.37-1.866-.669-.268-1.382-.21-2.085-.21-1.948.003-1.948.001-1.946 1.856m4.213 2.963c.642.682 1.28 1.362 1.922 2.037.28.293.547.604.132.956-.374.318-.656.024-.899-.226a190.383 190.383 0 01-2.157-2.26c-.239-.252-.456-.503-.842-.571-2.012-.357-2.363-.084-2.368 1.875v.308c0 .412.06.908-.54.933-.64.027-.553-.489-.555-.891-.004-1.369-.002-2.737-.002-4.106 0-1.027.013-2.053-.004-3.08-.008-.491.143-.79.71-.781 1.307.02 2.62-.049 3.92.061 1.705.145 2.76 1.082 2.983 2.45.24 1.472-.365 2.38-2.077 3.124-.062.027-.11.082-.223.17"/>
    <path fill="#393C97" d="M116.239 54.873c0-1.146.013-2.291-.005-3.436-.012-.676.197-1.046.868-1.038 1.61.018 3.221.006 4.832.006.329 0 .692.023.67.503-.02.47-.383.462-.713.461-1.326-.005-2.653.025-3.978-.015-.533-.016-.685.15-.693.748-.03 2.34-.052 2.34 2.076 2.34l2.463.001c.303 0 .597.037.586.478-.01.445-.32.448-.613.449-1.263.002-2.526.021-3.789-.009-.49-.011-.712.079-.724.715-.044 2.252-.07 2.251 1.981 2.251h2.748c.339 0 .674.062.67.524-.004.486-.37.48-.693.48-1.61.002-3.221-.015-4.832.008-.677.01-.874-.354-.86-1.03.022-1.145.006-2.291.006-3.436"/>
    <path fill="#3B3E98" d="M149.453 54.809c0-1.11.028-2.222-.01-3.33-.026-.742.194-1.092.91-1.08 1.583.028 3.166.007 4.749.01.315 0 .69-.041.7.465.013.596-.415.496-.751.498-1.33.004-2.66.024-3.989-.01-.493-.012-.635.145-.65.696-.065 2.387-.083 2.387 2.055 2.387.696 0 1.393-.022 2.089.009.37.017.963-.227.99.442.029.724-.586.46-.942.47-1.17.031-2.342.028-3.513.004-.458-.009-.658.092-.68.675-.087 2.286-.11 2.285 1.964 2.285h2.754c.33 0 .673.009.697.488.025.5-.319.52-.652.52-1.646 0-3.292-.005-4.938.002-.556.002-.8-.268-.789-.888.02-1.214.006-2.429.006-3.643"/>
    <path fill="#16B3EE" d="M60.036 54.821c0-1.108.008-2.215-.004-3.323-.008-.708.221-1.108.93-1.1 1.57.021 3.14.005 4.71.01.312.001.697-.031.72.45.026.567-.39.523-.736.524-1.257.003-2.514.027-3.77-.01-.57-.018-.82.097-.82.829.004 2.228-.029 2.228 2.014 2.228.785 0 1.57-.002 2.355.001.315.001.701-.033.717.446.02.563-.406.512-.749.513-1.194.004-2.388.032-3.58-.011-.58-.021-.743.19-.752.823-.03 2.106-.054 2.106 1.833 2.106.942 0 1.884-.003 2.827.003.323.003.668.034.686.507.02.498-.333.52-.656.52-1.633.005-3.266-.005-4.9.003-.619.003-.825-.38-.825-.988V54.82"/>
    <path fill="#0EB1EE" d="M190.174 54.714c-.008 2.126 1.33 3.586 3.307 3.612 1.966.026 3.396-1.456 3.405-3.53.01-1.978-1.415-3.403-3.405-3.406-2.008-.003-3.299 1.295-3.307 3.324m3.293-4.315c2.615.007 4.51 1.842 4.51 4.369.001 2.607-1.916 4.574-4.456 4.572-2.648-.003-4.505-1.919-4.484-4.626.019-2.517 1.873-4.322 4.43-4.315"/>
    <path fill="#03ADED" d="M202.903 53.295c0 .48.006.96-.002 1.44-.005.335.13.52.497.502 1.124-.054 2.256.127 3.376-.123.888-.198 1.496-.686 1.555-1.582.061-.92-.47-1.55-1.323-1.915-.667-.285-1.381-.233-2.087-.232-2.018.003-2.018.001-2.016 1.91m4.171 2.897c.685.722 1.316 1.366 1.92 2.033.238.262.665.54.224.943-.41.376-.705.057-.974-.225-.744-.78-1.477-1.568-2.225-2.344-.38-.396-2.43-.685-2.89-.43-.273.153-.216.407-.22.637-.01.618-.011 1.235-.008 1.853.002.365-.16.614-.546.612-.382-.003-.547-.245-.546-.615.004-2.538.003-5.077.003-7.615 0-.51.342-.625.776-.626 1.165-.001 2.334-.042 3.497.01 1.792.081 3.004.983 3.306 2.373.326 1.5-.3 2.444-2.317 3.394"/>
    <path fill="#16B3EE" d="M216.27 55.697c.658-.017 1.317.04 1.965-.168 1.306-.419 1.887-1.508 1.4-2.687-.518-1.256-2.51-1.968-4.642-1.417-1.006.26-.257 1.29-.446 1.945-.065.223-.01.476-.01.716 0 1.61 0 1.61 1.732 1.611m-2.962-.78c-.001-1.2.001-2.399-.002-3.598-.002-.62.257-.946.991-.919 1.03.038 2.064-.017 3.094.016 2.12.068 3.569 1.373 3.578 3.184.01 1.792-1.355 2.976-3.532 3.063-.147.006-.294 0-.442.002-.735.012-1.61-.201-2.17.096-.666.353-.189 1.244-.279 1.893-.053.39-.187.693-.639.686-.466-.008-.593-.351-.595-.724-.007-1.233-.003-2.466-.004-3.7"/>
    <path fill="#09AFEE" d="M42.222 56.032l-2.007-4.114-2.005 4.114h4.012zm2.483 2.742c-.01.232-.1.365-.253.448-.223.12-.465.132-.638-.055a1.479 1.479 0 01-.352-.593c-.374-1.416-1.282-1.861-2.63-1.613-.35.064-.73.066-1.079 0-1.471-.282-2.429.247-2.862 1.751-.11.382-.327.814-.847.542-.461-.24-.25-.628-.089-.956 1.195-2.424 2.387-4.85 3.602-7.264.405-.805.88-.85 1.256-.108 1.27 2.497 2.504 5.014 3.751 7.524.059.118.106.243.14.324z"/>
    <path fill="#3B3E98" d="M140.253 55.222c.016 1.03.627 2.187 1.952 2.826 1.317.635 2.504.275 3.54-.718.288-.277.561-.676.954-.27.461.479-.042.795-.305 1.074-1.261 1.341-3.495 1.594-5.075.605-1.705-1.068-2.505-3.327-1.89-5.343a4.192 4.192 0 014.316-2.988c.994.067 1.877.402 2.627 1.098.253.235.498.504.22.848-.268.33-.565.195-.832-.067-.785-.77-1.73-.96-2.767-.828-1.71.218-2.733 1.44-2.74 3.763"/>
    <path fill="#0EB1EE" d="M181.867 59.34c-1.946-.012-3.62-1.348-4.137-3.196-.55-1.965.124-3.971 1.691-5.035 1.533-1.04 3.8-.928 5.128.274.273.246.727.53.35.973-.35.411-.67.052-.982-.204-1.381-1.132-3.531-.955-4.629.362-1.079 1.294-.942 3.606.287 4.858 1.268 1.291 3.126 1.277 4.503-.063.295-.287.56-.659.951-.264.412.416.002.75-.249 1.013-.836.872-1.89 1.223-2.913 1.282"/>
    <path fill="#393C97" d="M102.686 59.34c-1.913.014-3.558-1.27-4.125-3.149-.585-1.939.073-3.99 1.62-5.055 1.535-1.056 3.785-.97 5.145.21.284.246.737.532.415.97-.373.508-.71.066-1.039-.203-1.318-1.081-3.483-.91-4.574.346-1.105 1.272-1.007 3.576.207 4.859 1.254 1.326 3.12 1.355 4.509.052.309-.29.607-.771 1.02-.294.395.46-.083.805-.367 1.08-.81.785-1.811 1.115-2.811 1.184"/>
    <path fill="#0EB1EE" d="M51.107 50.4c1.037 0 2.074-.002 3.11 0 .34 0 .693.041.705.502.013.479-.34.504-.683.504-.648-.002-1.3.041-1.944-.012-.618-.051-.765.208-.75.818.046 2.014.046 4.028.058 6.042.001.302.06.626-.141.889a.459.459 0 01-.523.173c-.363-.11-.368-.419-.368-.738.003-1.98-.069-3.965.03-5.94.053-1.09-.305-1.372-1.242-1.244-.478.066-.97.014-1.456.01-.3-.004-.615-.017-.642-.442-.03-.475.283-.56.638-.56 1.07-.004 2.139-.002 3.208-.002"/>
    <path fill="#303393" d="M109.846 54.788c0-1.23-.002-2.459.001-3.688.001-.338-.022-.702.588-.701.54 0 .684.282.684.66 0 2.524-.002 5.05.004 7.574 0 .375-.117.686-.637.706-.667.024-.64-.39-.64-.764v-3.787"/>
  </g>
</svg>